<?xml version="1.0" encoding="UTF-8"?>
<svg version="1.1" xmlns="http://www.w3.org/2000/svg" width="512" height="512">
<path d="M0 0 C7.89713984 7.6041644 19.24284379 19.88190093 21.17578125 31.15283203 C21.78421875 31.20439453 22.39265625 31.25595703 23.01953125 31.30908203 C37.65025019 33.20246919 51.770621 41.60889052 61.30078125 52.71533203 C67.03571885 60.24744568 71.65117312 68.68847102 73.42578125 78.02783203 C75.05979966 84.9928355 80.50286272 87.45344995 86.17578125 91.15283203 C100.31156008 102.61351327 109.97052489 122.38025193 112.17578125 140.15283203 C114.22262255 167.23614414 108.09920293 189.16123886 90.57421875 210.06298828 C77.93549429 223.72899823 58.11884458 233.39687773 39.57839012 234.52272034 C34.33541116 234.71828282 29.09409412 234.69454511 23.84838867 234.67041016 C21.84584548 234.67584261 19.84330629 234.68297151 17.84077454 234.69165039 C12.44383083 234.70975667 7.04719586 234.70286807 1.65024734 234.69013405 C-4.02677064 234.67993594 -9.70376395 234.68941889 -15.38078308 234.69567871 C-24.91381524 234.70293718 -34.44672308 234.69341665 -43.97973633 234.67431641 C-54.95938438 234.65257 -65.93873499 234.65959023 -76.91837579 234.68162203 C-86.38557356 234.69984994 -95.85268244 234.70229784 -105.31989211 234.69186735 C-110.9563764 234.68567046 -116.59272152 234.68469055 -122.22919655 234.69801331 C-127.53426519 234.70967865 -132.83895551 234.70135353 -138.14398384 234.67843628 C-140.07633592 234.67320489 -142.00872055 234.67456566 -143.94105911 234.68348694 C-170.92232422 234.79644487 -194.09842351 227.92995069 -214.1640625 208.96142578 C-232.00429626 190.12570174 -239.50937497 166.9521536 -239.29736328 141.34692383 C-238.63311088 117.91676694 -229.34531876 96.8773035 -212.61425781 80.40380859 C-202.96535517 71.35909522 -190.52872379 63.99398403 -177.70214844 60.58959961 C-175.53355058 59.96096033 -173.74313871 59.34662758 -171.82421875 58.15283203 C-170.6856113 55.35483361 -170.20346066 53.50014582 -169.82421875 50.59033203 C-166.92793907 34.92378545 -159.86772308 21.42408695 -149.82421875 9.15283203 C-149.39238281 8.62463867 -148.96054688 8.09644531 -148.515625 7.55224609 C-131.0710769 -13.37344699 -106.85782427 -25.82170808 -79.76171875 -28.53466797 C-49.6968255 -30.39833971 -22.03625417 -20.54866466 0 0 Z M-112.86450195 29.94384766 C-125.10433211 42.31341364 -130.84647995 57.21632119 -132.43334961 74.36206055 C-133.13178741 81.58539986 -134.04013949 87.24157554 -139.82421875 92.15283203 C-145.0602832 96.2323871 -151.31956309 96.8644799 -157.68359375 97.95019531 C-170.82804315 100.29261927 -181.67413316 106.17437233 -189.69921875 117.02783203 C-197.73888101 129.31486303 -199.94607561 143.28892489 -197.140625 157.65283203 C-193.24247275 170.07515952 -186.31291185 180.94100149 -174.609375 187.09936523 C-160.71584063 194.08101312 -147.53701814 194.30323806 -132.37768555 194.2980957 C-130.61259897 194.30109148 -128.84751305 194.30449497 -127.08242798 194.30827332 C-122.30751057 194.31707454 -117.53261111 194.31944978 -112.75768638 194.3200891 C-109.76933657 194.32080176 -106.78099127 194.32294015 -103.79264259 194.32558632 C-93.3527256 194.33482662 -82.91282134 194.33892282 -72.47290039 194.33813477 C-62.76460382 194.3375342 -53.05636285 194.34808535 -43.34808034 194.36387843 C-34.99278844 194.37698277 -26.63751465 194.38231745 -18.28221256 194.38167936 C-13.30090648 194.38142524 -8.31964988 194.38422873 -3.33835411 194.39485741 C1.34928425 194.40458733 6.03682634 194.40458422 10.72446823 194.39734077 C12.43681035 194.39630102 14.14915861 194.39862125 15.86149025 194.40470123 C32.28288623 194.45919484 47.36048098 193.74032022 60.05078125 182.02783203 C69.18213607 172.24898114 71.78002123 161.5549164 71.5078125 148.62158203 C70.97946723 138.41125532 66.61723335 130.52348692 59.5703125 123.30126953 C56.01846261 120.11445479 52.26661834 117.58854246 48.17578125 115.15283203 C46.69653291 114.19462477 45.21736211 113.23629779 43.73828125 112.27783203 C41.16101644 110.53680956 41.16101644 110.53680956 38.17578125 110.15283203 C35.5392013 104.50301785 34.51004608 98.28203408 33.8515625 92.11767578 C32.96998389 84.61951791 31.14239158 79.96968986 25.17578125 75.15283203 C20.24961496 72.0427138 14.44894979 70.53108416 8.6875 71.62548828 C0.75846925 73.77513662 -3.64791797 76.97123245 -7.82421875 84.15283203 C-8.72511221 87.11256269 -9.28181312 90.10933379 -9.82421875 93.15283203 C-10.98654603 99.67477953 -12.23033653 105.09803214 -17.54296875 109.61376953 C-24.07924744 112.96791254 -31.14944688 113.50365897 -38.23046875 111.45751953 C-42.92953365 109.37099444 -45.5912147 106.87649445 -47.82421875 102.15283203 C-51.96421493 89.23690644 -48.49300602 76.06028467 -42.82421875 64.15283203 C-37.36834268 54.01288675 -30.36712541 46.51476981 -20.82421875 40.15283203 C-27.91102126 27.47118543 -39.26955223 19.86317802 -52.82421875 15.15283203 C-53.95859375 14.74033203 -55.09296875 14.32783203 -56.26171875 13.90283203 C-77.19345383 9.49615096 -97.41124543 15.13649794 -112.86450195 29.94384766 Z " fill="#7DCDFB" transform="translate(238.82421875,277.84716796875)"/>
<path d="M0 0 C30.00648451 29.13941402 46.83784336 70.22358617 47.99609375 111.80078125 C48.34518182 145.29419504 38.12225038 181.22685536 16 207 C10.9313624 211.55163656 4.79850776 211.73386801 -1.8046875 211.51171875 C-7.62344957 210.57986321 -11.65496923 207.80227912 -15.40234375 203.32421875 C-18.90895732 197.89583119 -19.43958287 192.54252562 -18.3671875 186.33984375 C-16.9887052 181.14259292 -14.13766324 176.97937822 -11.25 172.5 C-5.93705384 163.92252956 -1.85971829 155.66766201 1 146 C1.20592773 145.34483398 1.41185547 144.68966797 1.62402344 144.01464844 C7.2568114 125.58573236 7.47608456 103.47403621 2 85 C1.70198486 83.95440918 1.70198486 83.95440918 1.39794922 82.88769531 C-4.45326604 62.64731173 -14.5451197 46.35500105 -29 31 C-29.53882813 30.39671875 -30.07765625 29.7934375 -30.6328125 29.171875 C-49.84563284 8.51085212 -78.99397648 -0.64942917 -106.38671875 -2.12890625 C-134.676967 -2.84937098 -164.61245359 7.32465317 -185.5 26.625 C-187.35239795 28.39831915 -189.17561871 30.1975332 -191 32 C-191.71414062 32.64195312 -192.42828125 33.28390625 -193.1640625 33.9453125 C-202.75506859 42.772095 -209.18467175 54.69715022 -214.86889648 66.27709961 C-218.07778988 72.66967967 -222.04174365 77.59623872 -229 80 C-235.38885919 80.73890896 -241.58971827 80.80680065 -247.24609375 77.453125 C-251.9232326 73.57807901 -255.06056631 68.57410214 -256.0625 62.5625 C-256.88576799 41.69444613 -236.73141864 19.13668821 -223.51904297 4.62109375 C-195.39043862 -25.39721755 -155.71543876 -42.056215 -114.8984375 -43.90966797 C-71.01670474 -45.27727588 -31.82209954 -29.81884086 0 0 Z " fill="#77BCFA" transform="translate(365,143)"/>
<path d="M0 0 C4.13281671 3.62861307 5.67580274 6.43204369 6.32421875 11.76953125 C6.58328618 18.56808877 6.33501971 24.31669566 1.953125 29.71484375 C-5.2032882 35.4813969 -13.35084276 40.109824 -21.171875 44.90234375 C-22.31131886 45.6072264 -23.45064227 46.31230381 -24.58984375 47.01757812 C-42.72581359 58.16430579 -42.72581359 58.16430579 -54.046875 56.71484375 C-60.2927879 55.13769852 -63.65779373 51.50582782 -66.91796875 46.078125 C-69.53935041 40.59045752 -69.50036521 35.36615329 -67.75390625 29.5859375 C-62.98583915 16.96768258 -46.37489854 10.59148109 -35.39501953 4.10693359 C-33.34305869 2.89043528 -31.30028316 1.66063056 -29.26171875 0.421875 C-28.22144531 -0.20332031 -27.18117188 -0.82851562 -26.109375 -1.47265625 C-25.23410156 -2.00246094 -24.35882813 -2.53226562 -23.45703125 -3.078125 C-15.22695515 -7.19983248 -7.12756652 -5.29583176 0 0 Z " fill="#73ACFA" transform="translate(472.046875,117.28515625)"/>
<path d="M0 0 C5.31273396 3.06427352 8.51475528 7.23957833 10.4609375 13.078125 C10.56319543 14.74879337 10.60935824 16.42317716 10.62207031 18.09692383 C10.63167786 19.11841019 10.6412854 20.13989655 10.65118408 21.19233704 C10.65543396 22.29546738 10.65968384 23.39859772 10.6640625 24.53515625 C10.66976257 25.6708757 10.67546265 26.80659515 10.68133545 27.97673035 C10.69078703 30.38169421 10.69732006 32.78667104 10.70117188 35.19165039 C10.71087151 38.86562788 10.74189176 42.5390446 10.7734375 46.21289062 C10.77996822 48.54947584 10.78521842 50.88606507 10.7890625 53.22265625 C10.8014093 54.3197139 10.8137561 55.41677155 10.82647705 56.54707336 C10.80555843 63.73307717 9.95397781 68.18080788 5.1484375 73.765625 C-0.56682226 78.68340666 -5.14492055 79.65299838 -12.5703125 79.4140625 C-18.06785098 78.79197262 -21.67552453 77.22710642 -25.32421875 73.01953125 C-30.46459043 65.81328916 -30.69593097 59.19061637 -30.70703125 50.5859375 C-30.71035965 49.68116669 -30.71368805 48.77639587 -30.71711731 47.84420776 C-30.72216369 45.93634548 -30.72452634 44.02847442 -30.72436523 42.12060547 C-30.72655011 39.21957695 -30.74472582 36.31893003 -30.76367188 33.41796875 C-30.76660669 31.55729296 -30.7685909 29.69661537 -30.76953125 27.8359375 C-30.77671677 26.97735138 -30.78390228 26.11876526 -30.79130554 25.23416138 C-30.76177307 17.35435609 -29.79711865 10.30477044 -24.5390625 4.078125 C-17.96596213 -2.21279682 -8.43032961 -3.06085814 0 0 Z " fill="#78BEFB" transform="translate(265.5390625,0.921875)"/>
<path d="M0 0 C0.99692871 0.58281738 1.99385742 1.16563477 3.02099609 1.76611328 C5.0582331 2.96167796 7.09115245 4.16463115 9.11962891 5.375 C11.86117183 7.00527872 14.6198294 8.60075342 17.38671875 10.1875 C18.98794139 11.12335561 20.58825734 12.0607649 22.1875 13 C22.91445068 13.41491699 23.64140137 13.82983398 24.39038086 14.25732422 C30.10443147 17.69104977 33.90074587 21.6397376 36.0625 28.125 C36.55069183 34.63109496 36.96712405 40.60466944 33.0625 46.125 C29.12925071 50.6960735 25.50696776 53.61319201 19.43359375 54.515625 C10.89808268 55.00527622 5.24545991 52.37816148 -1.9375 48.125 C-3.70271566 47.10866371 -5.46838039 46.09310717 -7.234375 45.078125 C-34.77436918 29.10159075 -34.77436918 29.10159075 -37.9375 21.125 C-39.64179076 14.5958861 -38.88599483 9.1699836 -35.9375 3.125 C-32.66644852 -2.18034498 -28.47749104 -4.7268948 -22.625 -6.625 C-13.53351663 -7.47071938 -7.6171119 -4.55683809 0 0 Z " fill="#82E1FB" transform="translate(69.9375,122.875)"/>
<path d="M0 0 C2.73327618 1.58228217 5.40790701 3.23994214 8.06079102 4.95336914 C10.13394916 6.28892358 12.23025021 7.57773981 14.33813477 8.85766602 C17.70376131 10.91025072 21.03638594 13.00817632 24.35083008 15.14233398 C25.9625209 16.17867521 27.58345394 17.20060732 29.20532227 18.22094727 C38.61847812 24.39056701 38.61847812 24.39056701 40.11938477 30.27954102 C41.04059714 37.09815761 41.2732565 43.37465433 37.61938477 49.40454102 C33.61092423 54.41045568 29.67302888 56.71075662 23.36157227 57.72094727 C14.94570836 58.23732534 9.20658947 55.55395824 2.11938477 51.27954102 C1.50546875 50.90974121 0.89155273 50.53994141 0.2590332 50.15893555 C-3.82171821 47.68547561 -7.84821424 45.13489266 -11.86254883 42.55541992 C-13.83554358 41.30803659 -15.83006242 40.10699587 -17.83764648 38.91625977 C-25.08650224 34.56414933 -31.01953748 30.79331314 -33.45092773 22.28344727 C-34.6319248 15.83821862 -33.22565759 9.9974036 -29.69311523 4.52954102 C-22.14223021 -4.95246116 -10.35139164 -5.50720096 0 0 Z " fill="#73ACFA" transform="translate(438.880615234375,337.720458984375)"/>
<path d="M0 0 C2.75159262 3.00932401 5.10133165 6.22474787 7.4375 9.5625 C8.04787109 10.39974609 8.65824219 11.23699219 9.28710938 12.09960938 C15.06461121 20.1447966 16.86773992 26.02099088 16 36 C14.0055539 41.77339661 10.36868269 45.32459029 5.4375 48.8125 C-0.9543717 51.02060113 -7.65686068 51.21016688 -13.9296875 48.5234375 C-18.95237887 45.83018829 -21.92878291 41.71008655 -25.25 37.1875 C-26.1471875 36.01477539 -26.1471875 36.01477539 -27.0625 34.81835938 C-37.3832694 21.15247334 -37.3832694 21.15247334 -37 12 C-35.84821202 5.83334753 -33.46736236 1.36347021 -29 -3 C-18.53604752 -9.32197129 -9.14440112 -7.54156445 0 0 Z " fill="#7ED2FB" transform="translate(148,41)"/>
<path d="M0 0 C0.95519531 -0.01224609 1.91039062 -0.02449219 2.89453125 -0.03710938 C11.77906926 -0.05539032 19.43388819 0.88599723 26.125 7.1875 C30.63055554 12.61727206 30.8549986 17.77254389 30.6328125 24.734375 C29.87099245 29.91475132 28.04439277 33.69222063 24.125 37.1875 C17.25279095 41.90797369 10.38594774 41.80467484 2.2890625 41.70898438 C0.1290664 41.68754037 -2.02760519 41.70884897 -4.1875 41.734375 C-11.71067871 41.74952059 -17.52498694 41.46548647 -23.875 37.1875 C-28.6053582 32.33265869 -30.17589782 27.58457765 -30.3125 20.875 C-30.19432026 14.72270169 -29.23033552 10.62679379 -24.875 6.1875 C-17.24323808 -0.06521664 -9.50026502 0.00635895 0 0 Z " fill="#72AAFA" transform="translate(481.875,234.8125)"/>
<path d="M0 0 C0.9384375 -0.020625 1.876875 -0.04125 2.84375 -0.0625 C10.49516198 -0.10477299 17.45606113 1.02312284 24.125 4.9375 C29.53677589 10.82678553 30.94034253 16.38091532 30.62890625 24.34765625 C29.95802906 29.4864372 28.39834524 33.29695888 24.53125 36.8125 C17.70707009 41.90171892 11.00454379 41.50072086 2.79125977 41.54516602 C1.31427404 41.55665314 -0.16267125 41.57705328 -1.6394043 41.60668945 C-16.92145792 41.91318666 -16.92145792 41.91318666 -23.75 37.25 C-29.58702164 31.10576669 -30.26804267 26.06250533 -30.12109375 17.73828125 C-29.49465109 11.84972025 -27.38700308 8.40508671 -22.84765625 4.6953125 C-15.71526349 -0.15088143 -8.36868339 0.04523613 0 0 Z " fill="#85EAFC" transform="translate(29.75,234.75)"/>
<path d="M0 0 C5.13792287 3.80351534 7.38075776 7.50435135 9 13.75 C9.31848473 22.98605719 5.60377403 29.86015168 0.9375 37.625 C0.38513672 38.59179688 -0.16722656 39.55859375 -0.73632812 40.5546875 C-4.68497455 47.21372886 -8.29169933 51.84723311 -15.875 54.375 C-23.13966452 55.03151042 -30.03779298 55.22417198 -35.875 50.375 C-40.56195822 45.15473362 -42.875 40.3861488 -42.875 33.375 C-41.64660937 26.67272829 -39.0399239 21.56879696 -35.5625 15.75 C-35.08876953 14.93015625 -34.61503906 14.1103125 -34.12695312 13.265625 C-29.72150955 5.76853635 -26.04437809 -0.00303397 -17.5546875 -2.98828125 C-10.98526596 -4.5492371 -5.73485321 -3.49159639 0 0 Z " fill="#74B1FA" transform="translate(385.875,34.625)"/>
</svg>
